<mxfile host="app.diagrams.net" modified="2023-11-28T15:46:27.801Z" agent="Mozilla/5.0 (Windows NT 10.0; Win64; x64) AppleWebKit/537.36 (KHTML, like Gecko) Chrome/119.0.0.0 Safari/537.36 Edg/119.0.0.0" etag="1o2dC4T7qPYC9bem20m5" version="22.1.4" type="github">
  <diagram name="第 1 页" id="E0CN54H91YnP9TXP5pDo">
    <mxGraphModel dx="2102" dy="2277" grid="1" gridSize="10" guides="1" tooltips="1" connect="1" arrows="1" fold="1" page="1" pageScale="1" pageWidth="1100" pageHeight="1700" math="0" shadow="0">
      <root>
        <mxCell id="0" />
        <mxCell id="1" parent="0" />
        <mxCell id="2KckAihutqKmkdtm_z7D-1" value="学号" style="ellipse;whiteSpace=wrap;html=1;align=center;" parent="1" vertex="1">
          <mxGeometry x="-540" y="-70" width="70" height="40" as="geometry" />
        </mxCell>
        <mxCell id="2KckAihutqKmkdtm_z7D-3" value="班号" style="ellipse;whiteSpace=wrap;html=1;align=center;" parent="1" vertex="1">
          <mxGeometry x="-447.5" y="-70" width="75" height="30" as="geometry" />
        </mxCell>
        <mxCell id="2KckAihutqKmkdtm_z7D-4" value="密码" style="ellipse;whiteSpace=wrap;html=1;align=center;" parent="1" vertex="1">
          <mxGeometry x="-340" y="-70" width="80" height="40" as="geometry" />
        </mxCell>
        <mxCell id="2KckAihutqKmkdtm_z7D-5" value="课程" style="rounded=1;arcSize=10;whiteSpace=wrap;html=1;align=center;" parent="1" vertex="1">
          <mxGeometry x="-790" y="30" width="100" height="40" as="geometry" />
        </mxCell>
        <mxCell id="2KckAihutqKmkdtm_z7D-7" value="教学计划" style="rounded=1;arcSize=10;whiteSpace=wrap;html=1;align=center;" parent="1" vertex="1">
          <mxGeometry x="-475" y="160" width="95" height="40" as="geometry" />
        </mxCell>
        <mxCell id="2KckAihutqKmkdtm_z7D-8" value="Entity" style="rounded=1;arcSize=10;whiteSpace=wrap;html=1;align=center;" parent="1" vertex="1">
          <mxGeometry x="-490" y="420" width="100" height="40" as="geometry" />
        </mxCell>
        <mxCell id="2KckAihutqKmkdtm_z7D-9" value="Entity" style="rounded=1;arcSize=10;whiteSpace=wrap;html=1;align=center;" parent="1" vertex="1">
          <mxGeometry x="-790" y="360" width="100" height="40" as="geometry" />
        </mxCell>
        <mxCell id="2KckAihutqKmkdtm_z7D-10" value="Entity" style="rounded=1;arcSize=10;whiteSpace=wrap;html=1;align=center;" parent="1" vertex="1">
          <mxGeometry x="-140" y="290" width="100" height="40" as="geometry" />
        </mxCell>
        <mxCell id="2KckAihutqKmkdtm_z7D-11" value="教务人员" style="rounded=1;arcSize=10;whiteSpace=wrap;html=1;align=center;" parent="1" vertex="1">
          <mxGeometry x="-200" y="40" width="100" height="40" as="geometry" />
        </mxCell>
        <mxCell id="2KckAihutqKmkdtm_z7D-12" value="" style="endArrow=none;html=1;rounded=0;exitX=0.737;exitY=0.904;exitDx=0;exitDy=0;exitPerimeter=0;entryX=0;entryY=0;entryDx=0;entryDy=0;" parent="1" source="2KckAihutqKmkdtm_z7D-1" target="2KckAihutqKmkdtm_z7D-16" edge="1">
          <mxGeometry relative="1" as="geometry">
            <mxPoint x="-420" y="160" as="sourcePoint" />
            <mxPoint x="-460" y="-20" as="targetPoint" />
          </mxGeometry>
        </mxCell>
        <mxCell id="2KckAihutqKmkdtm_z7D-13" value="" style="endArrow=none;html=1;rounded=0;entryX=0.5;entryY=0;entryDx=0;entryDy=0;" parent="1" source="2KckAihutqKmkdtm_z7D-3" target="2KckAihutqKmkdtm_z7D-16" edge="1">
          <mxGeometry relative="1" as="geometry">
            <mxPoint x="-420" y="160" as="sourcePoint" />
            <mxPoint x="-410" y="-20" as="targetPoint" />
          </mxGeometry>
        </mxCell>
        <mxCell id="2KckAihutqKmkdtm_z7D-16" value="学生" style="rounded=1;arcSize=10;whiteSpace=wrap;html=1;align=center;" parent="1" vertex="1">
          <mxGeometry x="-460" width="100" height="40" as="geometry" />
        </mxCell>
        <mxCell id="2KckAihutqKmkdtm_z7D-17" value="" style="endArrow=none;html=1;rounded=0;exitX=1;exitY=0;exitDx=0;exitDy=0;" parent="1" source="2KckAihutqKmkdtm_z7D-16" target="2KckAihutqKmkdtm_z7D-4" edge="1">
          <mxGeometry relative="1" as="geometry">
            <mxPoint x="-420" y="160" as="sourcePoint" />
            <mxPoint x="-260" y="160" as="targetPoint" />
          </mxGeometry>
        </mxCell>
        <mxCell id="2KckAihutqKmkdtm_z7D-18" value="班级类别" style="ellipse;whiteSpace=wrap;html=1;align=center;" parent="1" vertex="1">
          <mxGeometry x="-372.5" y="90" width="70" height="40" as="geometry" />
        </mxCell>
        <mxCell id="2KckAihutqKmkdtm_z7D-19" value="Attribute" style="ellipse;whiteSpace=wrap;html=1;align=center;" parent="1" vertex="1">
          <mxGeometry x="-425" y="230" width="70" height="40" as="geometry" />
        </mxCell>
        <mxCell id="2KckAihutqKmkdtm_z7D-20" value="Attribute" style="ellipse;whiteSpace=wrap;html=1;align=center;" parent="1" vertex="1">
          <mxGeometry x="-520" y="240" width="72.5" height="40" as="geometry" />
        </mxCell>
        <mxCell id="2KckAihutqKmkdtm_z7D-21" value="Attribute" style="ellipse;whiteSpace=wrap;html=1;align=center;" parent="1" vertex="1">
          <mxGeometry x="-590" y="180" width="60" height="40" as="geometry" />
        </mxCell>
        <mxCell id="2KckAihutqKmkdtm_z7D-22" value="课程名称" style="ellipse;whiteSpace=wrap;html=1;align=center;" parent="1" vertex="1">
          <mxGeometry x="-562.5" y="90" width="60" height="40" as="geometry" />
        </mxCell>
        <mxCell id="2KckAihutqKmkdtm_z7D-23" value="课时" style="ellipse;whiteSpace=wrap;html=1;align=center;" parent="1" vertex="1">
          <mxGeometry x="-415" y="50" width="60" height="40" as="geometry" />
        </mxCell>
        <mxCell id="2KckAihutqKmkdtm_z7D-24" value="课程代码" style="ellipse;whiteSpace=wrap;html=1;align=center;" parent="1" vertex="1">
          <mxGeometry x="-480" y="80" width="55" height="40" as="geometry" />
        </mxCell>
        <mxCell id="2KckAihutqKmkdtm_z7D-25" value="" style="endArrow=none;html=1;rounded=0;entryX=1;entryY=1;entryDx=0;entryDy=0;" parent="1" target="2KckAihutqKmkdtm_z7D-24" edge="1">
          <mxGeometry relative="1" as="geometry">
            <mxPoint x="-420" y="160" as="sourcePoint" />
            <mxPoint x="-260" y="160" as="targetPoint" />
          </mxGeometry>
        </mxCell>
        <mxCell id="2KckAihutqKmkdtm_z7D-26" value="" style="endArrow=none;html=1;rounded=0;entryX=0.647;entryY=1.014;entryDx=0;entryDy=0;entryPerimeter=0;" parent="1" target="2KckAihutqKmkdtm_z7D-23" edge="1">
          <mxGeometry relative="1" as="geometry">
            <mxPoint x="-420" y="160" as="sourcePoint" />
            <mxPoint x="-260" y="160" as="targetPoint" />
          </mxGeometry>
        </mxCell>
        <mxCell id="2KckAihutqKmkdtm_z7D-27" value="" style="endArrow=none;html=1;rounded=0;entryX=0;entryY=1;entryDx=0;entryDy=0;" parent="1" target="2KckAihutqKmkdtm_z7D-18" edge="1">
          <mxGeometry relative="1" as="geometry">
            <mxPoint x="-420" y="160" as="sourcePoint" />
            <mxPoint x="-260" y="160" as="targetPoint" />
          </mxGeometry>
        </mxCell>
        <mxCell id="2KckAihutqKmkdtm_z7D-29" value="" style="endArrow=none;html=1;rounded=0;exitX=1;exitY=1;exitDx=0;exitDy=0;" parent="1" source="2KckAihutqKmkdtm_z7D-7" target="2KckAihutqKmkdtm_z7D-19" edge="1">
          <mxGeometry relative="1" as="geometry">
            <mxPoint x="-420" y="160" as="sourcePoint" />
            <mxPoint x="-260" y="160" as="targetPoint" />
          </mxGeometry>
        </mxCell>
        <mxCell id="2KckAihutqKmkdtm_z7D-30" value="" style="endArrow=none;html=1;rounded=0;entryX=1;entryY=1;entryDx=0;entryDy=0;" parent="1" target="2KckAihutqKmkdtm_z7D-22" edge="1">
          <mxGeometry relative="1" as="geometry">
            <mxPoint x="-420" y="160" as="sourcePoint" />
            <mxPoint x="-260" y="160" as="targetPoint" />
          </mxGeometry>
        </mxCell>
        <mxCell id="2KckAihutqKmkdtm_z7D-31" value="" style="endArrow=none;html=1;rounded=0;entryX=1;entryY=0;entryDx=0;entryDy=0;exitX=0;exitY=0.5;exitDx=0;exitDy=0;" parent="1" source="2KckAihutqKmkdtm_z7D-7" target="2KckAihutqKmkdtm_z7D-21" edge="1">
          <mxGeometry relative="1" as="geometry">
            <mxPoint x="-475" y="200" as="sourcePoint" />
            <mxPoint x="-260" y="160" as="targetPoint" />
          </mxGeometry>
        </mxCell>
        <mxCell id="2KckAihutqKmkdtm_z7D-32" value="" style="endArrow=none;html=1;rounded=0;entryX=0.5;entryY=0;entryDx=0;entryDy=0;exitX=0.5;exitY=1;exitDx=0;exitDy=0;" parent="1" source="2KckAihutqKmkdtm_z7D-7" target="2KckAihutqKmkdtm_z7D-20" edge="1">
          <mxGeometry relative="1" as="geometry">
            <mxPoint x="-420" y="160" as="sourcePoint" />
            <mxPoint x="-260" y="160" as="targetPoint" />
          </mxGeometry>
        </mxCell>
        <mxCell id="2KckAihutqKmkdtm_z7D-35" value="计划学时" style="ellipse;whiteSpace=wrap;html=1;align=center;" parent="1" vertex="1">
          <mxGeometry x="-730" y="130" width="50" height="40" as="geometry" />
        </mxCell>
        <mxCell id="2KckAihutqKmkdtm_z7D-36" value="合班系数" style="ellipse;whiteSpace=wrap;html=1;align=center;" parent="1" vertex="1">
          <mxGeometry x="-680" y="120" width="60" height="40" as="geometry" />
        </mxCell>
        <mxCell id="2KckAihutqKmkdtm_z7D-37" value="班号" style="ellipse;whiteSpace=wrap;html=1;align=center;" parent="1" vertex="1">
          <mxGeometry x="-880" y="40" width="40" height="40" as="geometry" />
        </mxCell>
        <mxCell id="2KckAihutqKmkdtm_z7D-38" value="限制条件" style="ellipse;whiteSpace=wrap;html=1;align=center;" parent="1" vertex="1">
          <mxGeometry x="-870" y="110" width="50" height="40" as="geometry" />
        </mxCell>
        <mxCell id="2KckAihutqKmkdtm_z7D-39" value="班级类别" style="ellipse;whiteSpace=wrap;html=1;align=center;" parent="1" vertex="1">
          <mxGeometry x="-610" y="-30" width="45" height="40" as="geometry" />
        </mxCell>
        <mxCell id="2KckAihutqKmkdtm_z7D-40" value="课时" style="ellipse;whiteSpace=wrap;html=1;align=center;" parent="1" vertex="1">
          <mxGeometry x="-660" y="-60" width="50" height="40" as="geometry" />
        </mxCell>
        <mxCell id="2KckAihutqKmkdtm_z7D-41" value="课程代码" style="ellipse;whiteSpace=wrap;html=1;align=center;" parent="1" vertex="1">
          <mxGeometry x="-740" y="-70" width="50" height="40" as="geometry" />
        </mxCell>
        <mxCell id="2KckAihutqKmkdtm_z7D-42" value="课程名称" style="ellipse;whiteSpace=wrap;html=1;align=center;" parent="1" vertex="1">
          <mxGeometry x="-820" y="-50" width="50" height="40" as="geometry" />
        </mxCell>
        <mxCell id="2KckAihutqKmkdtm_z7D-43" value="教工号" style="ellipse;whiteSpace=wrap;html=1;align=center;" parent="1" vertex="1">
          <mxGeometry x="-890" y="-20" width="45" height="40" as="geometry" />
        </mxCell>
        <mxCell id="2KckAihutqKmkdtm_z7D-45" value="" style="endArrow=none;html=1;rounded=0;exitX=0.684;exitY=1.02;exitDx=0;exitDy=0;exitPerimeter=0;" parent="1" source="2KckAihutqKmkdtm_z7D-5" target="2KckAihutqKmkdtm_z7D-35" edge="1">
          <mxGeometry relative="1" as="geometry">
            <mxPoint x="-420" y="160" as="sourcePoint" />
            <mxPoint x="-260" y="160" as="targetPoint" />
          </mxGeometry>
        </mxCell>
        <mxCell id="2KckAihutqKmkdtm_z7D-46" value="" style="endArrow=none;html=1;rounded=0;entryX=0.887;entryY=1.04;entryDx=0;entryDy=0;entryPerimeter=0;" parent="1" source="2KckAihutqKmkdtm_z7D-36" target="2KckAihutqKmkdtm_z7D-5" edge="1">
          <mxGeometry relative="1" as="geometry">
            <mxPoint x="-420" y="160" as="sourcePoint" />
            <mxPoint x="-660" y="90" as="targetPoint" />
          </mxGeometry>
        </mxCell>
        <mxCell id="2KckAihutqKmkdtm_z7D-47" value="" style="endArrow=none;html=1;rounded=0;exitX=1;exitY=0;exitDx=0;exitDy=0;entryX=0;entryY=0;entryDx=0;entryDy=0;" parent="1" source="2KckAihutqKmkdtm_z7D-5" target="2KckAihutqKmkdtm_z7D-39" edge="1">
          <mxGeometry relative="1" as="geometry">
            <mxPoint x="-420" y="160" as="sourcePoint" />
            <mxPoint x="-590" y="50" as="targetPoint" />
          </mxGeometry>
        </mxCell>
        <mxCell id="2KckAihutqKmkdtm_z7D-48" value="" style="endArrow=none;html=1;rounded=0;entryX=0.304;entryY=1.084;entryDx=0;entryDy=0;entryPerimeter=0;" parent="1" source="2KckAihutqKmkdtm_z7D-5" target="2KckAihutqKmkdtm_z7D-40" edge="1">
          <mxGeometry relative="1" as="geometry">
            <mxPoint x="-420" y="160" as="sourcePoint" />
            <mxPoint x="-260" y="160" as="targetPoint" />
          </mxGeometry>
        </mxCell>
        <mxCell id="2KckAihutqKmkdtm_z7D-49" value="" style="endArrow=none;html=1;rounded=0;entryX=0.5;entryY=1;entryDx=0;entryDy=0;exitX=0.572;exitY=-0.036;exitDx=0;exitDy=0;exitPerimeter=0;" parent="1" source="2KckAihutqKmkdtm_z7D-5" target="2KckAihutqKmkdtm_z7D-41" edge="1">
          <mxGeometry relative="1" as="geometry">
            <mxPoint x="-420" y="160" as="sourcePoint" />
            <mxPoint x="-260" y="160" as="targetPoint" />
          </mxGeometry>
        </mxCell>
        <mxCell id="2KckAihutqKmkdtm_z7D-50" value="" style="endArrow=none;html=1;rounded=0;entryX=1;entryY=1;entryDx=0;entryDy=0;exitX=0.25;exitY=0;exitDx=0;exitDy=0;" parent="1" source="2KckAihutqKmkdtm_z7D-5" target="2KckAihutqKmkdtm_z7D-42" edge="1">
          <mxGeometry relative="1" as="geometry">
            <mxPoint x="-420" y="160" as="sourcePoint" />
            <mxPoint x="-260" y="160" as="targetPoint" />
          </mxGeometry>
        </mxCell>
        <mxCell id="2KckAihutqKmkdtm_z7D-51" value="" style="endArrow=none;html=1;rounded=0;exitX=0;exitY=0;exitDx=0;exitDy=0;entryX=1;entryY=0.5;entryDx=0;entryDy=0;" parent="1" source="2KckAihutqKmkdtm_z7D-5" target="2KckAihutqKmkdtm_z7D-43" edge="1">
          <mxGeometry relative="1" as="geometry">
            <mxPoint x="-420" y="160" as="sourcePoint" />
            <mxPoint x="-780" y="30" as="targetPoint" />
          </mxGeometry>
        </mxCell>
        <mxCell id="2KckAihutqKmkdtm_z7D-52" value="" style="endArrow=none;html=1;rounded=0;entryX=1;entryY=0.5;entryDx=0;entryDy=0;" parent="1" source="2KckAihutqKmkdtm_z7D-5" target="2KckAihutqKmkdtm_z7D-37" edge="1">
          <mxGeometry relative="1" as="geometry">
            <mxPoint x="-420" y="160" as="sourcePoint" />
            <mxPoint x="-260" y="160" as="targetPoint" />
          </mxGeometry>
        </mxCell>
        <mxCell id="2KckAihutqKmkdtm_z7D-53" value="" style="endArrow=none;html=1;rounded=0;entryX=1;entryY=0;entryDx=0;entryDy=0;exitX=0;exitY=1;exitDx=0;exitDy=0;" parent="1" source="2KckAihutqKmkdtm_z7D-5" target="2KckAihutqKmkdtm_z7D-38" edge="1">
          <mxGeometry relative="1" as="geometry">
            <mxPoint x="-420" y="160" as="sourcePoint" />
            <mxPoint x="-260" y="160" as="targetPoint" />
          </mxGeometry>
        </mxCell>
        <mxCell id="2KckAihutqKmkdtm_z7D-56" value="" style="endArrow=none;html=1;rounded=0;entryX=0.236;entryY=0.934;entryDx=0;entryDy=0;entryPerimeter=0;exitX=1;exitY=0.5;exitDx=0;exitDy=0;" parent="1" source="2KckAihutqKmkdtm_z7D-11" edge="1">
          <mxGeometry relative="1" as="geometry">
            <mxPoint x="-420" y="160" as="sourcePoint" />
            <mxPoint x="-38.76000000000022" y="77.36000000000013" as="targetPoint" />
          </mxGeometry>
        </mxCell>
        <mxCell id="2KckAihutqKmkdtm_z7D-57" value="" style="endArrow=none;html=1;rounded=0;entryX=0.267;entryY=0.994;entryDx=0;entryDy=0;entryPerimeter=0;exitX=0.5;exitY=0;exitDx=0;exitDy=0;" parent="1" source="2KckAihutqKmkdtm_z7D-11" edge="1">
          <mxGeometry relative="1" as="geometry">
            <mxPoint x="-420" y="160" as="sourcePoint" />
            <mxPoint x="-125.97000000000003" y="-0.23999999999978172" as="targetPoint" />
          </mxGeometry>
        </mxCell>
        <mxCell id="2KckAihutqKmkdtm_z7D-58" value="&lt;span style=&quot;border-bottom: 1px dotted&quot;&gt;Attribute&lt;/span&gt;" style="ellipse;whiteSpace=wrap;html=1;align=center;" parent="1" vertex="1">
          <mxGeometry x="-890" y="480" width="100" height="40" as="geometry" />
        </mxCell>
        <mxCell id="2KckAihutqKmkdtm_z7D-59" value="&lt;span style=&quot;border-bottom: 1px dotted&quot;&gt;Attribute&lt;/span&gt;" style="ellipse;whiteSpace=wrap;html=1;align=center;" parent="1" vertex="1">
          <mxGeometry x="-760" y="480" width="100" height="40" as="geometry" />
        </mxCell>
        <mxCell id="2KckAihutqKmkdtm_z7D-60" value="&lt;span style=&quot;border-bottom: 1px dotted&quot;&gt;Attribute&lt;/span&gt;" style="ellipse;whiteSpace=wrap;html=1;align=center;" parent="1" vertex="1">
          <mxGeometry x="-940" y="390" width="100" height="40" as="geometry" />
        </mxCell>
        <mxCell id="2KckAihutqKmkdtm_z7D-61" value="&lt;span style=&quot;border-bottom: 1px dotted&quot;&gt;Attribute&lt;/span&gt;" style="ellipse;whiteSpace=wrap;html=1;align=center;" parent="1" vertex="1">
          <mxGeometry x="-930" y="310" width="100" height="40" as="geometry" />
        </mxCell>
        <mxCell id="2KckAihutqKmkdtm_z7D-62" value="" style="endArrow=none;html=1;rounded=0;exitX=1;exitY=1;exitDx=0;exitDy=0;entryX=0.579;entryY=-0.09;entryDx=0;entryDy=0;entryPerimeter=0;" parent="1" source="2KckAihutqKmkdtm_z7D-9" target="2KckAihutqKmkdtm_z7D-59" edge="1">
          <mxGeometry relative="1" as="geometry">
            <mxPoint x="-420" y="160" as="sourcePoint" />
            <mxPoint x="-660" y="430" as="targetPoint" />
          </mxGeometry>
        </mxCell>
        <mxCell id="2KckAihutqKmkdtm_z7D-63" value="" style="endArrow=none;html=1;rounded=0;exitX=0.5;exitY=0;exitDx=0;exitDy=0;entryX=0;entryY=1;entryDx=0;entryDy=0;" parent="1" source="2KckAihutqKmkdtm_z7D-60" target="2KckAihutqKmkdtm_z7D-9" edge="1">
          <mxGeometry relative="1" as="geometry">
            <mxPoint x="-420" y="160" as="sourcePoint" />
            <mxPoint x="-260" y="160" as="targetPoint" />
          </mxGeometry>
        </mxCell>
        <mxCell id="2KckAihutqKmkdtm_z7D-64" value="" style="endArrow=none;html=1;rounded=0;exitX=0.5;exitY=0;exitDx=0;exitDy=0;entryX=0.5;entryY=1;entryDx=0;entryDy=0;" parent="1" source="2KckAihutqKmkdtm_z7D-58" target="2KckAihutqKmkdtm_z7D-9" edge="1">
          <mxGeometry relative="1" as="geometry">
            <mxPoint x="-420" y="160" as="sourcePoint" />
            <mxPoint x="-260" y="160" as="targetPoint" />
          </mxGeometry>
        </mxCell>
        <mxCell id="2KckAihutqKmkdtm_z7D-65" value="" style="endArrow=none;html=1;rounded=0;exitX=0;exitY=0;exitDx=0;exitDy=0;entryX=1;entryY=1;entryDx=0;entryDy=0;" parent="1" source="2KckAihutqKmkdtm_z7D-9" target="2KckAihutqKmkdtm_z7D-61" edge="1">
          <mxGeometry relative="1" as="geometry">
            <mxPoint x="-420" y="160" as="sourcePoint" />
            <mxPoint x="-260" y="160" as="targetPoint" />
          </mxGeometry>
        </mxCell>
        <mxCell id="2KckAihutqKmkdtm_z7D-66" value="Attribute" style="ellipse;whiteSpace=wrap;html=1;align=center;" parent="1" vertex="1">
          <mxGeometry x="-420" y="340" width="100" height="40" as="geometry" />
        </mxCell>
        <mxCell id="2KckAihutqKmkdtm_z7D-67" value="Attribute" style="ellipse;whiteSpace=wrap;html=1;align=center;" parent="1" vertex="1">
          <mxGeometry x="-380" y="460" width="100" height="40" as="geometry" />
        </mxCell>
        <mxCell id="2KckAihutqKmkdtm_z7D-68" value="Attribute" style="ellipse;whiteSpace=wrap;html=1;align=center;" parent="1" vertex="1">
          <mxGeometry x="-590" y="480" width="100" height="40" as="geometry" />
        </mxCell>
        <mxCell id="2KckAihutqKmkdtm_z7D-70" value="" style="endArrow=none;html=1;rounded=0;exitX=0.5;exitY=0;exitDx=0;exitDy=0;entryX=0.5;entryY=1;entryDx=0;entryDy=0;" parent="1" source="2KckAihutqKmkdtm_z7D-68" target="2KckAihutqKmkdtm_z7D-8" edge="1">
          <mxGeometry relative="1" as="geometry">
            <mxPoint x="-420" y="350" as="sourcePoint" />
            <mxPoint x="-260" y="350" as="targetPoint" />
          </mxGeometry>
        </mxCell>
        <mxCell id="2KckAihutqKmkdtm_z7D-71" value="" style="endArrow=none;html=1;rounded=0;exitX=0.5;exitY=1;exitDx=0;exitDy=0;entryX=0.303;entryY=-0.104;entryDx=0;entryDy=0;entryPerimeter=0;" parent="1" source="2KckAihutqKmkdtm_z7D-8" target="2KckAihutqKmkdtm_z7D-67" edge="1">
          <mxGeometry relative="1" as="geometry">
            <mxPoint x="-420" y="350" as="sourcePoint" />
            <mxPoint x="-260" y="350" as="targetPoint" />
          </mxGeometry>
        </mxCell>
        <mxCell id="2KckAihutqKmkdtm_z7D-72" value="" style="endArrow=none;html=1;rounded=0;exitX=0.312;exitY=0.94;exitDx=0;exitDy=0;entryX=0.25;entryY=0;entryDx=0;entryDy=0;exitPerimeter=0;" parent="1" source="2KckAihutqKmkdtm_z7D-66" target="2KckAihutqKmkdtm_z7D-8" edge="1">
          <mxGeometry relative="1" as="geometry">
            <mxPoint x="-420" y="350" as="sourcePoint" />
            <mxPoint x="-260" y="350" as="targetPoint" />
          </mxGeometry>
        </mxCell>
        <mxCell id="2KckAihutqKmkdtm_z7D-74" value="Attribute" style="ellipse;whiteSpace=wrap;html=1;align=center;" parent="1" vertex="1">
          <mxGeometry x="-240" y="210" width="100" height="40" as="geometry" />
        </mxCell>
        <mxCell id="2KckAihutqKmkdtm_z7D-75" value="Attribute" style="ellipse;whiteSpace=wrap;html=1;align=center;" parent="1" vertex="1">
          <mxGeometry x="-230" y="360" width="100" height="40" as="geometry" />
        </mxCell>
        <mxCell id="2KckAihutqKmkdtm_z7D-76" value="Attribute" style="ellipse;whiteSpace=wrap;html=1;align=center;" parent="1" vertex="1">
          <mxGeometry x="-110" y="190" width="100" height="40" as="geometry" />
        </mxCell>
        <mxCell id="2KckAihutqKmkdtm_z7D-77" value="Attribute" style="ellipse;whiteSpace=wrap;html=1;align=center;" parent="1" vertex="1">
          <mxGeometry x="-10" y="260" width="100" height="40" as="geometry" />
        </mxCell>
        <mxCell id="2KckAihutqKmkdtm_z7D-78" value="Attribute" style="ellipse;whiteSpace=wrap;html=1;align=center;" parent="1" vertex="1">
          <mxGeometry x="-20" y="360" width="100" height="40" as="geometry" />
        </mxCell>
        <mxCell id="2KckAihutqKmkdtm_z7D-79" value="" style="endArrow=none;html=1;rounded=0;entryX=0;entryY=0.5;entryDx=0;entryDy=0;exitX=1;exitY=0.5;exitDx=0;exitDy=0;" parent="1" source="2KckAihutqKmkdtm_z7D-74" target="2KckAihutqKmkdtm_z7D-10" edge="1">
          <mxGeometry relative="1" as="geometry">
            <mxPoint x="-420" y="350" as="sourcePoint" />
            <mxPoint x="-260" y="350" as="targetPoint" />
          </mxGeometry>
        </mxCell>
        <mxCell id="2KckAihutqKmkdtm_z7D-80" value="" style="endArrow=none;html=1;rounded=0;entryX=0.5;entryY=1;entryDx=0;entryDy=0;exitX=0.5;exitY=0;exitDx=0;exitDy=0;" parent="1" source="2KckAihutqKmkdtm_z7D-10" target="2KckAihutqKmkdtm_z7D-76" edge="1">
          <mxGeometry relative="1" as="geometry">
            <mxPoint x="-420" y="350" as="sourcePoint" />
            <mxPoint x="-260" y="350" as="targetPoint" />
          </mxGeometry>
        </mxCell>
        <mxCell id="2KckAihutqKmkdtm_z7D-81" value="" style="endArrow=none;html=1;rounded=0;entryX=0.04;entryY=0.766;entryDx=0;entryDy=0;entryPerimeter=0;exitX=1;exitY=0.5;exitDx=0;exitDy=0;" parent="1" source="2KckAihutqKmkdtm_z7D-10" target="2KckAihutqKmkdtm_z7D-77" edge="1">
          <mxGeometry relative="1" as="geometry">
            <mxPoint x="-420" y="350" as="sourcePoint" />
            <mxPoint x="-260" y="350" as="targetPoint" />
          </mxGeometry>
        </mxCell>
        <mxCell id="2KckAihutqKmkdtm_z7D-82" value="" style="endArrow=none;html=1;rounded=0;entryX=0;entryY=0.5;entryDx=0;entryDy=0;exitX=0.5;exitY=1;exitDx=0;exitDy=0;" parent="1" source="2KckAihutqKmkdtm_z7D-10" target="2KckAihutqKmkdtm_z7D-78" edge="1">
          <mxGeometry relative="1" as="geometry">
            <mxPoint x="-420" y="350" as="sourcePoint" />
            <mxPoint x="-260" y="350" as="targetPoint" />
          </mxGeometry>
        </mxCell>
        <mxCell id="2KckAihutqKmkdtm_z7D-83" value="" style="endArrow=none;html=1;rounded=0;entryX=0.25;entryY=1;entryDx=0;entryDy=0;exitX=0.576;exitY=-0.034;exitDx=0;exitDy=0;exitPerimeter=0;" parent="1" source="2KckAihutqKmkdtm_z7D-75" target="2KckAihutqKmkdtm_z7D-10" edge="1">
          <mxGeometry relative="1" as="geometry">
            <mxPoint x="-420" y="350" as="sourcePoint" />
            <mxPoint x="-260" y="350" as="targetPoint" />
          </mxGeometry>
        </mxCell>
        <mxCell id="2KckAihutqKmkdtm_z7D-342" value="" style="edgeStyle=entityRelationEdgeStyle;fontSize=12;html=1;endArrow=ERoneToMany;startArrow=ERoneToMany;rounded=0;exitX=1;exitY=0.25;exitDx=0;exitDy=0;entryX=0;entryY=0.5;entryDx=0;entryDy=0;strokeColor=#B20000;fillColor=#e51400;" parent="1" source="2KckAihutqKmkdtm_z7D-5" target="2KckAihutqKmkdtm_z7D-16" edge="1">
          <mxGeometry width="100" height="100" relative="1" as="geometry">
            <mxPoint x="-390" y="280" as="sourcePoint" />
            <mxPoint x="-290" y="180" as="targetPoint" />
          </mxGeometry>
        </mxCell>
        <mxCell id="2KckAihutqKmkdtm_z7D-343" value="" style="edgeStyle=entityRelationEdgeStyle;fontSize=12;html=1;endArrow=ERoneToMany;startArrow=ERoneToMany;rounded=0;entryX=0;entryY=0.5;entryDx=0;entryDy=0;fillColor=#e51400;strokeColor=#B20000;exitX=1;exitY=0.75;exitDx=0;exitDy=0;" parent="1" source="2KckAihutqKmkdtm_z7D-5" edge="1">
          <mxGeometry width="100" height="100" relative="1" as="geometry">
            <mxPoint x="-680" y="60" as="sourcePoint" />
            <mxPoint x="-475" y="170" as="targetPoint" />
            <Array as="points">
              <mxPoint x="-680" y="60" />
            </Array>
          </mxGeometry>
        </mxCell>
        <mxCell id="2KckAihutqKmkdtm_z7D-346" value="" style="edgeStyle=entityRelationEdgeStyle;fontSize=12;html=1;endArrow=ERoneToMany;startArrow=ERoneToMany;rounded=0;entryX=0.25;entryY=0;entryDx=0;entryDy=0;fillColor=#e51400;strokeColor=#B20000;exitX=0.25;exitY=1;exitDx=0;exitDy=0;" parent="1" source="2KckAihutqKmkdtm_z7D-5" target="2KckAihutqKmkdtm_z7D-9" edge="1">
          <mxGeometry width="100" height="100" relative="1" as="geometry">
            <mxPoint x="-760" y="70" as="sourcePoint" />
            <mxPoint x="-768" y="349.9999999999999" as="targetPoint" />
          </mxGeometry>
        </mxCell>
        <mxCell id="2KckAihutqKmkdtm_z7D-350" value="" style="edgeStyle=entityRelationEdgeStyle;fontSize=12;html=1;endArrow=ERmany;rounded=0;entryX=0;entryY=0.5;entryDx=0;entryDy=0;exitX=1;exitY=0.75;exitDx=0;exitDy=0;fillColor=#e51400;strokeColor=#B20000;" parent="1" source="2KckAihutqKmkdtm_z7D-9" target="2KckAihutqKmkdtm_z7D-8" edge="1">
          <mxGeometry width="100" height="100" relative="1" as="geometry">
            <mxPoint x="-670" y="400" as="sourcePoint" />
            <mxPoint x="-490" y="180" as="targetPoint" />
          </mxGeometry>
        </mxCell>
        <mxCell id="2KckAihutqKmkdtm_z7D-351" value="" style="edgeStyle=entityRelationEdgeStyle;fontSize=12;html=1;endArrow=ERmany;rounded=0;exitX=1;exitY=0.5;exitDx=0;exitDy=0;fillColor=#e51400;strokeColor=#B20000;" parent="1" source="2KckAihutqKmkdtm_z7D-9" edge="1">
          <mxGeometry width="100" height="100" relative="1" as="geometry">
            <mxPoint x="-655" y="390" as="sourcePoint" />
            <mxPoint x="-475" y="190" as="targetPoint" />
          </mxGeometry>
        </mxCell>
        <mxCell id="2KckAihutqKmkdtm_z7D-352" value="" style="edgeStyle=entityRelationEdgeStyle;fontSize=12;html=1;endArrow=ERmany;rounded=0;exitX=1;exitY=0.75;exitDx=0;exitDy=0;entryX=0;entryY=0.75;entryDx=0;entryDy=0;fillColor=#e51400;strokeColor=#B20000;" parent="1" source="2KckAihutqKmkdtm_z7D-7" target="2KckAihutqKmkdtm_z7D-10" edge="1">
          <mxGeometry width="100" height="100" relative="1" as="geometry">
            <mxPoint x="-375" y="179.99999999999983" as="sourcePoint" />
            <mxPoint x="-412.0999999999999" y="398.3999999999999" as="targetPoint" />
          </mxGeometry>
        </mxCell>
        <mxCell id="2KckAihutqKmkdtm_z7D-353" value="" style="edgeStyle=entityRelationEdgeStyle;fontSize=12;html=1;endArrow=ERmany;rounded=0;exitX=0;exitY=0.5;exitDx=0;exitDy=0;entryX=1;entryY=0.25;entryDx=0;entryDy=0;fillColor=#e51400;strokeColor=#B20000;" parent="1" source="2KckAihutqKmkdtm_z7D-11" target="2KckAihutqKmkdtm_z7D-7" edge="1">
          <mxGeometry width="100" height="100" relative="1" as="geometry">
            <mxPoint x="-490" y="190" as="sourcePoint" />
            <mxPoint x="-380" y="150" as="targetPoint" />
          </mxGeometry>
        </mxCell>
        <mxCell id="2KckAihutqKmkdtm_z7D-357" value="教工号" style="ellipse;whiteSpace=wrap;html=1;align=center;" parent="1" vertex="1">
          <mxGeometry x="-160" y="-40" width="100" height="40" as="geometry" />
        </mxCell>
        <mxCell id="2KckAihutqKmkdtm_z7D-358" value="密码" style="ellipse;whiteSpace=wrap;html=1;align=center;" parent="1" vertex="1">
          <mxGeometry x="-50" y="50" width="100" height="40" as="geometry" />
        </mxCell>
      </root>
    </mxGraphModel>
  </diagram>
</mxfile>
